<svg xmlns="http://www.w3.org/2000/svg" version="1.1" xmlns:xlink="http://www.w3.org/1999/xlink" xmlns:svgjs="http://svgjs.com/svgjs" width="1440" height="560" preserveAspectRatio="none" viewBox="0 0 1440 560"><g clip-path="url(&quot;#SvgjsClipPath1040&quot;)" fill="none"><rect width="1440" height="560" x="0" y="0" fill="rgba(0, 0, 0, 0.1)"></rect><circle r="93.335" cx="-86.52" cy="46.64" stroke="#ffb006" stroke-opacity="0.25" stroke-width="2"></circle><circle r="93.335" cx="427.98" cy="408.82" stroke="#ffb006" stroke-opacity="0.25" stroke-width="2"></circle><circle r="93.335" cx="716.48" cy="771.88" stroke="#ffb006" stroke-opacity="0.25" stroke-width="2"></circle><circle r="135.045" cx="369.45" cy="214.59" stroke="#ffb006" stroke-opacity="0.25" stroke-width="2"></circle><circle r="79.785" cx="777.47" cy="429.21" stroke="#ffb006" stroke-opacity="0.25" stroke-width="2"></circle><circle r="122.125" cx="230.5" cy="317.81" stroke="#ffb006" stroke-opacity="0.25" stroke-width="2"></circle><circle r="160.22" cx="987.35" cy="504.85" stroke="#ffb006" stroke-opacity="0.25" stroke-width="2"></circle><circle r="150.915" cx="1430.27" cy="34.92" stroke="#ffb006" stroke-opacity="0.25" stroke-width="2"></circle><circle r="185.705" cx="1013.78" cy="88.97" stroke="#ffb006" stroke-opacity="0.25" stroke-width="2"></circle><circle r="89.81" cx="1350.07" cy="57.72" stroke="#ffb006" stroke-opacity="0.25" stroke-width="2"></circle><circle r="105.135" cx="689.69" cy="104.43" stroke="#ffb006" stroke-opacity="0.25" stroke-width="2"></circle><circle r="87.105" cx="1294.3" cy="384" stroke="#ffb006" stroke-opacity="0.25" stroke-width="2"></circle><circle r="174.765" cx="702.74" cy="309.8" stroke="#ffb006" stroke-opacity="0.25" stroke-width="2"></circle><circle r="55.335" cx="895.78" cy="451.42" stroke="#ffb006" stroke-opacity="0.25" stroke-width="2"></circle><circle r="137.17" cx="613.45" cy="70.61" stroke="#ffb006" stroke-opacity="0.25" stroke-width="2"></circle><circle r="57.41" cx="1346.35" cy="84.18" stroke="#ffb006" stroke-opacity="0.25" stroke-width="2"></circle><circle r="109.795" cx="465.91" cy="167.83" stroke="#ffb006" stroke-opacity="0.25" stroke-width="2"></circle><circle r="76.455" cx="188.51" cy="97.75" stroke="#ffb006" stroke-opacity="0.25" stroke-width="2"></circle><circle r="178.105" cx="109.25" cy="166.26" stroke="#ffb006" stroke-opacity="0.25" stroke-width="2"></circle><circle r="159.86" cx="73.97" cy="448.1" stroke="#ffb006" stroke-opacity="0.25" stroke-width="2"></circle><circle r="185.91" cx="627.87" cy="214.61" stroke="#ffb006" stroke-opacity="0.25" stroke-width="2"></circle><circle r="46.975" cx="594.13" cy="107.39" stroke="#ffb006" stroke-opacity="0.25" stroke-width="2"></circle><circle r="101.44" cx="1333.51" cy="21.16" stroke="#ffb006" stroke-opacity="0.25" stroke-width="2"></circle><circle r="80.33" cx="684.19" cy="236.03" stroke="#ffb006" stroke-opacity="0.25" stroke-width="2"></circle><circle r="165.16" cx="506.83" cy="540.79" stroke="#ffb006" stroke-opacity="0.25" stroke-width="2"></circle><circle r="122.655" cx="1437.84" cy="306.58" stroke="#ffb006" stroke-opacity="0.25" stroke-width="2"></circle></g><defs><clipPath id="SvgjsClipPath1040"><rect width="1440" height="560" x="0" y="0"></rect></clipPath></defs></svg>